<svg width="24" height="25" viewBox="0 0 24 25" fill="none" xmlns="http://www.w3.org/2000/svg">
<path d="M2.74292 2.07843C2.19064 2.07843 1.74292 2.52615 1.74292 3.07843C1.74292 3.63071 2.19064 4.07843 2.74292 4.07843V2.07843ZM4.99907 3.07843L5.96533 2.82089C5.84864 2.38307 5.45216 2.07843 4.99907 2.07843V3.07843ZM8.66531 16.8337L7.69904 17.0912C7.82797 17.5749 8.2947 17.8888 8.79131 17.8257L8.66531 16.8337ZM19.946 15.4008L20.072 16.3929C20.4971 16.3389 20.8405 16.0201 20.9259 15.6003L19.946 15.4008ZM21.6382 7.09037L22.618 7.28989C22.6779 6.99573 22.6025 6.69021 22.4126 6.45773C22.2227 6.22524 21.9384 6.09037 21.6382 6.09037V7.09037ZM6.06839 7.09037L5.10212 7.34791L5.10212 7.34791L6.06839 7.09037ZM2.74292 4.07843H4.99907V2.07843H2.74292V4.07843ZM8.79131 17.8257L20.072 16.3929L19.82 14.4088L8.5393 15.8416L8.79131 17.8257ZM20.9259 15.6003L22.618 7.28989L20.6583 6.89085L18.9661 15.2013L20.9259 15.6003ZM4.0328 3.33597L5.10212 7.34791L7.03465 6.83283L5.96533 2.82089L4.0328 3.33597ZM5.10212 7.34791L7.69904 17.0912L9.63157 16.5761L7.03465 6.83283L5.10212 7.34791ZM21.6382 6.09037H6.06839V8.09037H21.6382V6.09037ZM11.1905 20.5857C11.1905 20.877 10.9623 21.0857 10.7143 21.0857V23.0857C12.0969 23.0857 13.1905 21.9513 13.1905 20.5857H11.1905ZM10.7143 21.0857C10.4664 21.0857 10.2382 20.877 10.2382 20.5857H8.23816C8.23816 21.9513 9.33176 23.0857 10.7143 23.0857V21.0857ZM10.2382 20.5857C10.2382 20.2944 10.4664 20.0857 10.7143 20.0857V18.0857C9.33176 18.0857 8.23816 19.2201 8.23816 20.5857H10.2382ZM10.7143 20.0857C10.9623 20.0857 11.1905 20.2944 11.1905 20.5857H13.1905C13.1905 19.2201 12.0969 18.0857 10.7143 18.0857V20.0857ZM19.0636 20.5857C19.0636 20.877 18.8353 21.0857 18.5874 21.0857V23.0857C19.97 23.0857 21.0636 21.9513 21.0636 20.5857H19.0636ZM18.5874 21.0857C18.3394 21.0857 18.1112 20.877 18.1112 20.5857H16.1112C16.1112 21.9513 17.2048 23.0857 18.5874 23.0857V21.0857ZM18.1112 20.5857C18.1112 20.2944 18.3394 20.0857 18.5874 20.0857V18.0857C17.2048 18.0857 16.1112 19.2201 16.1112 20.5857H18.1112ZM18.5874 20.0857C18.8353 20.0857 19.0636 20.2944 19.0636 20.5857H21.0636C21.0636 19.2201 19.97 18.0857 18.5874 18.0857V20.0857Z" fill="#FFFEFE"/>
</svg>
