<svg width="191" height="89" viewBox="0 0 191 89" fill="none" xmlns="http://www.w3.org/2000/svg">
<path d="M37.9156 72.776C35.0996 73.48 32.3156 73.992 29.5636 74.312C26.8756 74.632 23.8356 74.792 20.4436 74.792C20.4436 65.832 20.1876 56.168 19.6756 45.8C19.1636 35.368 18.4596 26.376 17.5636 18.824C16.7316 18.888 15.1316 19.048 12.7636 19.304C10.3956 19.496 7.22763 19.784 3.25963 20.168C2.42763 17.928 1.78763 15.624 1.33963 13.256C0.891625 10.888 0.667625 8.584 0.667625 6.34399C9.43563 4.36 17.7876 2.952 25.7236 2.12C33.7236 1.224 42.7476 0.775997 52.7956 0.775997C53.1156 1.864 53.3396 3.112 53.4676 4.51999C53.6596 5.864 53.7556 7.368 53.7556 9.032C53.7556 10.184 53.6596 11.432 53.4676 12.776C53.3396 14.12 53.0836 15.592 52.6996 17.192C50.2676 17.192 47.8996 17.224 45.5956 17.288C43.2916 17.288 41.0196 17.352 38.7796 17.48C39.0356 21.448 39.2276 25.576 39.3556 29.864C39.4836 34.152 39.5476 38.568 39.5476 43.112C39.5476 47.336 39.4196 51.912 39.1636 56.84C38.9076 61.704 38.4916 67.016 37.9156 72.776Z" fill="#00CC55"/>
<path d="M113.059 82.28C110.819 83.752 108.131 84.968 104.995 85.928C101.923 86.952 98.2429 87.72 93.9549 88.232C93.5709 84.392 93.0269 80.392 92.3229 76.232C91.6829 72.008 90.8509 67.72 89.8269 63.368C85.7309 63.432 82.0509 63.56 78.7869 63.752C75.5229 63.944 72.4509 64.232 69.5709 64.616C68.5469 67.496 67.4909 70.248 66.4029 72.872C65.3149 75.496 64.2269 77.896 63.1389 80.072C60.0029 79.56 57.0269 78.536 54.2109 77C51.4589 75.528 49.2829 73.768 47.6829 71.72C52.6109 62.568 56.8989 53.352 60.5469 44.072C64.1949 34.728 68.0029 22.984 71.9709 8.84C75.1069 8.84 77.9229 9 80.4189 9.32C82.9789 9.576 85.7949 10.088 88.8669 10.856C94.4349 19.688 99.2669 30.184 103.363 42.344C107.459 54.504 110.691 67.816 113.059 82.28ZM79.9389 30.824C79.1069 33.96 78.1789 37.288 77.1549 40.808C76.1309 44.328 75.0429 47.912 73.8909 51.56C76.0669 51.24 78.1789 50.984 80.2269 50.792C82.3389 50.6 84.4509 50.472 86.5629 50.408C85.4749 46.824 84.3869 43.4 83.2989 40.136C82.2109 36.872 81.0909 33.768 79.9389 30.824Z" fill="#FFBD2E"/>
<path d="M190.325 78.344C186.805 79.688 183.541 80.616 180.533 81.128C177.589 81.64 174.197 81.896 170.357 81.896C170.933 75.432 171.413 67.88 171.797 59.24C172.181 50.6 172.501 41.448 172.757 31.784C170.389 35.752 168.181 39.848 166.133 44.072C164.085 48.296 162.197 52.648 160.469 57.128C158.933 57.576 157.077 57.832 154.901 57.896C152.789 57.96 150.741 57.8 148.757 57.416C146.901 53.256 144.917 49.192 142.805 45.224C140.693 41.192 138.453 37.288 136.085 33.512C136.085 41.256 136.501 48.936 137.333 56.552C138.229 64.104 139.413 70.408 140.885 75.464C139.157 75.976 136.533 76.424 133.013 76.808C129.493 77.192 126.229 77.384 123.221 77.384C122.005 69 120.981 58.312 120.149 45.32C119.317 32.264 118.901 20.776 118.901 10.856C121.653 8.936 124.661 7.304 127.925 5.96C131.253 4.616 134.357 3.752 137.237 3.368C141.845 9.32 145.685 14.76 148.757 19.688C151.893 24.616 154.549 29.416 156.725 34.088C159.157 28.456 161.813 23.08 164.693 17.96C167.637 12.776 170.741 7.944 174.005 3.464C176.565 3.848 179.125 4.424 181.685 5.192C184.245 5.896 186.677 6.792 188.981 7.88C189.429 16.648 189.749 27.336 189.941 39.944C190.197 52.552 190.325 65.352 190.325 78.344Z" fill="#FF8800"/>
</svg>
